<?xml version="1.0" encoding="utf-8"?>
<!-- Generator: Adobe Illustrator 16.0.4, SVG Export Plug-In . SVG Version: 6.00 Build 0)  -->
<!DOCTYPE svg PUBLIC "-//W3C//DTD SVG 1.1//EN" "http://www.w3.org/Graphics/SVG/1.1/DTD/svg11.dtd">
<svg version="1.1" xmlns="http://www.w3.org/2000/svg" xmlns:xlink="http://www.w3.org/1999/xlink" x="0px" y="0px"
	 width="350.812px" height="84.193px" viewBox="0 0 350.812 84.193" enable-background="new 0 0 350.812 84.193"
	 xml:space="preserve">
<g id="Layer_1">
</g>
<g id="front_text">
	<g>
		<path fill="#333333" d="M199.939,44.574h9.459l4.777,14.979h0.064l5.006-14.979h9.104v22.531h-5.876l0.097-17.305h-0.064
			l-5.746,17.305h-5.52l-5.488-17.305h-0.062l0.126,17.305h-5.876V44.574z"/>
		<path fill="#333333" d="M249.048,67.105h-5.296v-3.1h-0.066c-1.163,2.419-3.488,3.486-6.131,3.486
			c-4.584,0-6.425-3.229-6.425-6.715V50.285h5.81v8.135c0,3.164,1.1,4.23,2.682,4.23c2.387,0,3.613-1.646,3.613-5.262v-7.104h5.813
			V67.105z"/>
		<path fill="#333333" d="M251.373,62.455c1.355,0.584,3.357,1.162,5.455,1.162c1.193,0,2.354-0.189,2.354-1.352
			c0-2.842-8.262-0.843-8.262-6.91c0-3.875,3.811-5.457,7.165-5.457c2.005,0,4.036,0.23,5.91,0.971l-0.454,4.033
			c-1.227-0.744-3.068-1.129-4.519-1.129c-1.257,0-2.679,0.227-2.679,1.162c0,2.614,8.65,0.549,8.65,6.942
			c0,4.485-4.037,5.614-7.846,5.614c-2.613,0-4.389-0.26-6.1-0.809L251.373,62.455z"/>
		<path fill="#333333" d="M271.938,60.392c0.324,2.323,2.1,3.226,4.938,3.226c1.584,0,3.391-0.353,5.133-1.29v4.098
			c-1.872,0.745-4.004,1.067-6.167,1.067c-5.55,0-9.777-3.264-9.777-8.814s3.777-8.779,9.005-8.779c6.232,0,8.489,4.424,8.489,9.424
			v1.069H271.938z M278.329,57.1c0-1.938-0.903-3.521-3.228-3.521c-2.098,0-3.098,1.583-3.229,3.521H278.329z"/>
		<path fill="#333333" d="M303.545,67.105h-5.293v-3.1h-0.068c-1.162,2.419-3.486,3.486-6.131,3.486
			c-4.587,0-6.423-3.229-6.423-6.715V50.285h5.811v8.135c0,3.164,1.095,4.23,2.677,4.23c2.387,0,3.615-1.646,3.615-5.262v-7.104
			h5.812V67.105z"/>
		<path fill="#333333" d="M306.192,50.285h5.294v3.099h0.066c1.162-2.419,3.486-3.485,6.133-3.485c2.391,0,4.356,1.03,5.26,3.229
			c1.357-2.258,3.586-3.229,5.971-3.229c4.848,0,5.941,2.744,5.941,7.297v9.91h-5.81v-9.039c0-1.903-0.679-3.324-2.325-3.324
			c-2.065,0-3.291,1.646-3.291,5.262v7.102h-5.809v-9.039c0-1.903-0.681-3.324-2.326-3.324c-2.064,0-3.293,1.646-3.293,5.262v7.102
			h-5.812V50.285z"/>
		<path fill="#333333" d="M337.188,62.455c1.357,0.584,3.354,1.162,5.457,1.162c1.195,0,2.355-0.189,2.355-1.352
			c0-2.842-8.262-0.843-8.262-6.91c0-3.875,3.804-5.457,7.165-5.457c2.001,0,4.036,0.23,5.904,0.971l-0.45,4.033
			c-1.228-0.744-3.064-1.129-4.518-1.129c-1.26,0-2.678,0.227-2.678,1.162c0,2.614,8.65,0.549,8.65,6.942
			c0,4.485-4.037,5.614-7.846,5.614c-2.615,0-4.393-0.26-6.101-0.809L337.188,62.455z"/>
	</g>
	<g>
		<path fill="#333333" d="M10.572,44.549h8.197c7.847,0,13.333,2.455,13.333,11.17c0,8.422-5.65,11.361-13.333,11.361h-8.197V44.549
			z M16.573,62.627h2.326c4.487,0,7.004-2.324,7.004-6.81c0-4.489-2.616-6.815-7.004-6.815h-2.326V62.627z"/>
		<path fill="#333333" d="M40.918,47.521h-5.81v-4.264h5.81V47.521z M35.108,50.262h5.81V67.08h-5.81V50.262z"/>
		<path fill="#333333" d="M43.924,62.431c1.354,0.582,3.354,1.162,5.454,1.162c1.192,0,2.355-0.192,2.355-1.354
			c0-2.838-8.262-0.84-8.262-6.908c0-3.873,3.807-5.452,7.165-5.452c2.002,0,4.035,0.226,5.908,0.966l-0.453,4.036
			c-1.229-0.741-3.068-1.13-4.52-1.13c-1.26,0-2.68,0.226-2.68,1.162c0,2.612,8.652,0.547,8.652,6.939
			c0,4.485-4.035,5.615-7.845,5.615c-2.613,0-4.388-0.258-6.103-0.802L43.924,62.431z"/>
		<path fill="#333333" d="M72.591,55.069c-1.066-0.643-2.132-0.931-3.52-0.931c-2.516,0-4.456,1.742-4.456,4.648
			c0,2.678,2.26,4.42,4.778,4.42c1.323,0,2.647-0.288,3.618-0.809l0.127,4.326c-1.455,0.484-3.196,0.742-4.747,0.742
			c-5.553,0-9.78-3.227-9.78-8.779c0-5.582,4.227-8.81,9.78-8.81c1.744,0,3.292,0.287,4.619,0.933L72.591,55.069z"/>
		<path fill="#333333" d="M73.786,58.688c0-5.582,4.228-8.81,9.783-8.81c5.553,0,9.778,3.228,9.778,8.81
			c0,5.553-4.226,8.779-9.778,8.779C78.013,67.467,73.786,64.24,73.786,58.688z M87.346,58.688c0-2.516-1.101-4.744-3.777-4.744
			c-2.682,0-3.777,2.229-3.777,4.744c0,2.487,1.096,4.713,3.777,4.713C86.246,63.4,87.346,61.175,87.346,58.688z"/>
		<path fill="#333333" d="M93.708,50.262h6.23l3.487,11.977h0.063l3.519-11.977h5.777l-6.228,16.818h-6.618L93.708,50.262z"/>
		<path fill="#333333" d="M119.017,60.365c0.324,2.323,2.099,3.228,4.943,3.228c1.579,0,3.387-0.354,5.128-1.292v4.104
			c-1.873,0.742-4.001,1.062-6.164,1.062c-5.551,0-9.78-3.256-9.78-8.81c0-5.552,3.775-8.779,9.005-8.779
			c6.229,0,8.488,4.419,8.488,9.425v1.062H119.017z M125.409,57.073c0-1.935-0.904-3.517-3.227-3.517
			c-2.099,0-3.1,1.582-3.229,3.517H125.409z"/>
		<path fill="#333333" d="M144.717,54.912c-0.646-0.194-1.292-0.194-1.969-0.194c-2.713,0-4.229,1.97-4.229,5.261v7.102h-5.813
			V50.262h5.295v3.102h0.064c1.003-2.129,2.456-3.485,4.973-3.485c0.678,0,1.387,0.093,1.969,0.193L144.717,54.912z"/>
		<path fill="#333333" d="M147.882,69.44c0.773,0.255,1.483,0.351,2.291,0.351c1.422,0,2.518-0.838,2.938-2.324L146.3,50.262h6.262
			l3.618,10.975h0.062l3.453-10.975h5.811l-6.168,15.656c-1.643,4.234-2.903,8.332-8.229,8.332c-1.228,0-2.42-0.133-3.615-0.39
			L147.882,69.44z"/>
	</g>
	<path fill="#0956A4" stroke="#FFB716" stroke-width="0.2924" d="M152.058,11.111"/>
	<path fill="#3DAD2C" stroke="#FFB716" stroke-width="0.2924" d="M165.084,3.991"/>
	<line fill="none" stroke="#5FA845" stroke-width="0.4496" x1="212.287" y1="17.779" x2="180.79" y2="39.73"/>
	<line fill="#FFB716" stroke="#E7862E" stroke-width="0.4496" x1="180.79" y1="39.73" x2="158.608" y2="35.063"/>
	<line fill="none" stroke="#2E64AF" stroke-width="0.4496" x1="213.146" y1="28.278" x2="182.886" y2="37.749"/>
	<line fill="#FFFFFF" stroke="#2E64AF" stroke-width="0.4496" x1="186.04" y1="40.838" x2="148.845" y2="21.465"/>
	<line fill="#FFFFFF" stroke="#5FA845" stroke-width="0.4496" x1="187.767" y1="43.886" x2="147.757" y2="10.822"/>
	<line fill="none" stroke="#E7862E" stroke-width="0.4496" x1="185.196" y1="45.319" x2="167.202" y2="15.347"/>
	<line fill="none" stroke="#2E64AF" stroke-width="0.4496" x1="180.906" y1="58.84" x2="181.037" y2="2.698"/>
	<line fill="none" stroke="#2E64AF" stroke-width="0.4496" x1="175.892" y1="52.891" x2="186.852" y2="16.958"/>
	<line fill="none" stroke="#5FA845" stroke-width="0.4496" x1="195.947" y1="10.487" x2="175.705" y2="50.23"/>
	<line fill="none" stroke="#E7862E" stroke-width="0.4496" x1="210.107" y1="4.536" x2="177.334" y2="42.838"/>
	<g>
		
			<rect x="145.579" y="8.71" transform="matrix(0.6553 -0.7554 0.7554 0.6553 42.6413 115.5387)" fill="#2E64AF" width="4.675" height="4.675"/>
		
			<rect x="147.479" y="13.673" transform="matrix(0.6563 -0.7545 0.7545 0.6563 40.0965 116.713)" fill="#2E64AF" width="1.347" height="1.347"/>
		
			<rect x="150.523" y="10.135" transform="matrix(0.6545 -0.756 0.756 0.6545 44.0634 118.0459)" fill="#2E64AF" width="1.347" height="1.349"/>
		
			<rect x="146.995" y="7.098" transform="matrix(0.6555 -0.7552 0.7552 0.6555 45.006 114.2004)" fill="#2E64AF" width="1.351" height="1.348"/>
		
			<rect x="143.951" y="10.617" transform="matrix(0.6551 -0.7556 0.7556 0.6551 41.3569 113.1694)" fill="#2E64AF" width="1.345" height="1.346"/>
	</g>
	<g>
		
			<rect x="146.511" y="19.134" transform="matrix(0.5053 -0.863 0.863 0.5053 55.1099 139.072)" fill="#5FA845" width="4.677" height="4.674"/>
		
			<rect x="149.013" y="23.999" transform="matrix(0.5056 -0.8628 0.8628 0.5056 52.7242 141.3465)" fill="#5FA845" width="1.346" height="1.346"/>
		
			<rect x="151.357" y="19.959" transform="matrix(0.5053 -0.863 0.863 0.5053 57.4095 141.4061)" fill="#5FA845" width="1.35" height="1.348"/>
		
			<rect x="147.336" y="17.621" transform="matrix(0.5072 -0.8618 0.8618 0.5072 57.1668 136.571)" fill="#5FA845" width="1.35" height="1.347"/>
		
			<rect x="144.984" y="21.638" transform="matrix(0.5051 -0.863 0.863 0.5051 52.8252 136.75)" fill="#5FA845" width="1.347" height="1.347"/>
	</g>
	
		<rect x="156.272" y="32.732" transform="matrix(0.9723 0.2337 -0.2337 0.9723 12.5881 -36.0958)" fill="#E7862E" width="4.674" height="4.676"/>
	
		<rect x="155.115" y="36.126" transform="matrix(0.9724 0.2335 -0.2335 0.9724 12.9 -35.3613)" fill="#E7862E" width="1.351" height="1.346"/>
	
		<rect x="159.658" y="37.199" transform="matrix(0.972 0.235 -0.235 0.972 13.3907 -36.6181)" fill="#E7862E" width="1.344" height="1.348"/>
	
		<rect x="160.729" y="32.673" transform="matrix(0.9729 0.2314 -0.2314 0.9729 12.0941 -36.4374)" fill="#E7862E" width="1.349" height="1.347"/>
	
		<rect x="156.205" y="31.586" transform="matrix(0.9723 0.2338 -0.2338 0.9723 11.8922 -35.7878)" fill="#E7862E" width="1.347" height="1.348"/>
	<g>
		
			<rect x="178.978" y="0.761" transform="matrix(-0.0328 -0.9995 0.9995 -0.0328 184.164 184.4184)" fill="#E7862E" width="4.674" height="4.677"/>
		
			<rect x="183.055" y="4.688" transform="matrix(-0.0304 -0.9995 0.9995 -0.0304 183.9598 189.1679)" fill="#E7862E" width="1.348" height="1.345"/>
		
			<rect x="182.887" y="0.021" transform="matrix(-0.0319 -0.9995 0.9995 -0.0319 188.7132 184.1868)" fill="#E7862E" width="1.349" height="1.35"/>
		
			<rect x="178.238" y="0.184" transform="matrix(-0.0348 -0.9994 0.9994 -0.0348 184.2778 179.6924)" fill="#E7862E" width="1.347" height="1.348"/>
		<polygon fill="#E7862E" points="179.713,4.816 179.754,6.162 178.412,6.204 178.365,4.856 		"/>
	</g>
	<g>
		
			<rect x="207.553" y="2.356" transform="matrix(0.7133 -0.7009 0.7009 0.7133 56.8881 148.4519)" fill="#5FA845" width="4.677" height="4.674"/>
		
			<rect x="209.19" y="7.327" transform="matrix(0.7116 -0.7025 0.7025 0.7116 54.8939 149.7443)" fill="#5FA845" width="1.342" height="1.35"/>
		
			<rect x="212.508" y="4.046" transform="matrix(0.7136 -0.7005 0.7005 0.7136 57.7444 150.6919)" fill="#5FA845" width="1.344" height="1.349"/>
		
			<rect x="209.234" y="0.736" transform="matrix(0.7136 -0.7006 0.7006 0.7136 59.1335 147.458)" fill="#5FA845" width="1.349" height="1.344"/>
		
			<rect x="205.919" y="3.998" transform="matrix(0.7127 -0.7015 0.7015 0.7127 56.0748 146.258)" fill="#5FA845" width="1.346" height="1.347"/>
	</g>
	<g>
		
			<rect x="210.579" y="25.949" transform="matrix(0.9558 -0.2941 0.2941 0.9558 1.0971 63.8705)" fill="#5FA845" width="4.679" height="4.676"/>
	</g>
	<g>
		
			<rect x="164.613" y="13.099" transform="matrix(0.8863 -0.4631 0.4631 0.8863 11.8353 79.0773)" fill="#5FA845" width="4.676" height="4.676"/>
		
			<rect x="165.289" y="17.92" transform="matrix(0.8866 -0.4626 0.4626 0.8866 10.2209 78.8745)" fill="#5FA845" width="1.344" height="1.348"/>
		
			<rect x="169.42" y="15.744" transform="matrix(0.886 -0.4637 0.4637 0.886 11.7785 80.7429)" fill="#5FA845" width="1.345" height="1.348"/>
		
			<rect x="167.251" y="11.626" transform="matrix(0.886 -0.4637 0.4637 0.886 13.4379 79.2613)" fill="#5FA845" width="1.348" height="1.347"/>
		
			<rect x="163.129" y="13.783" transform="matrix(0.887 -0.4618 0.4618 0.887 11.8386 77.2809)" fill="#5FA845" width="1.345" height="1.343"/>
	</g>
	<g>
		
			<rect x="193.61" y="8.154" transform="matrix(0.9521 0.3059 -0.3059 0.9521 12.6059 -59.4461)" fill="#2E64AF" width="4.679" height="4.678"/>
		
			<rect x="192.334" y="11.331" transform="matrix(0.9521 0.3059 -0.3059 0.9521 12.922 -58.4593)" fill="#2E64AF" width="1.346" height="1.347"/>
		
			<rect x="196.781" y="12.742" transform="matrix(0.9515 0.3075 -0.3075 0.9515 13.6949 -60.0738)" fill="#2E64AF" width="1.35" height="1.349"/>
		
			<rect x="198.192" y="8.308" transform="matrix(0.9522 0.3054 -0.3054 0.9522 12.2404 -60.2957)" fill="#2E64AF" width="1.35" height="1.346"/>
		
			<rect x="193.765" y="6.886" transform="matrix(0.9521 0.3059 -0.3059 0.9521 11.6306 -59.11)" fill="#2E64AF" width="1.346" height="1.346"/>
	</g>
	<g>
		
			<rect x="209.953" y="15.445" transform="matrix(0.836 -0.5487 0.5487 0.836 25.0553 119.403)" fill="#2E64AF" width="4.677" height="4.678"/>
		
			<rect x="210.948" y="20.351" transform="matrix(0.8354 -0.5497 0.5497 0.8354 23.2789 119.7785)" fill="#2E64AF" width="1.343" height="1.345"/>
		
			<rect x="214.839" y="17.773" transform="matrix(0.8353 -0.5498 0.5498 0.8353 25.3588 121.5372)" fill="#2E64AF" width="1.348" height="1.349"/>
		
			<rect x="212.275" y="13.893" transform="matrix(0.836 -0.5488 0.5488 0.836 26.9342 119.245)" fill="#2E64AF" width="1.348" height="1.343"/>
		
			<rect x="208.383" y="16.443" transform="matrix(0.8358 -0.549 0.549 0.8358 24.923 117.5797)" fill="#2E64AF" width="1.345" height="1.35"/>
	</g>
	
		<rect x="184.58" y="15.012" transform="matrix(-0.3392 0.9407 -0.9407 -0.3392 266.1955 -152.7129)" fill="#E7862E" width="4.313" height="4.258"/>
	<polygon fill="#2E64AF" points="189.992,70.968 173.351,67.729 164.413,36.088 197.389,26.122 	"/>
	<path fill="#003CA5" stroke="#FFFFFF" stroke-width="2.7039" d="M175.915,43.206c0,1.82-1.478,3.304-3.301,3.304
		c-1.827,0-3.304-1.483-3.304-3.304c0-1.825,1.478-3.304,3.304-3.304C174.437,39.902,175.915,41.381,175.915,43.206z"/>
	<g>
		<circle fill="#2E64AF" cx="191.124" cy="41.447" r="3.302"/>
		<path fill="#FFFFFF" d="M191.122,46.092c-2.563,0-4.646-2.082-4.646-4.645c0-2.562,2.082-4.648,4.646-4.648
			s4.647,2.086,4.647,4.648C195.77,44.01,193.686,46.092,191.122,46.092L191.122,46.092z M191.122,39.49
			c-1.079,0-1.956,0.877-1.956,1.957c0,1.079,0.877,1.956,1.956,1.956c1.077,0,1.955-0.876,1.955-1.956
			C193.077,40.367,192.199,39.49,191.122,39.49L191.122,39.49z"/>
	</g>
	<polyline fill="none" stroke="#FFFFFF" stroke-width="1.352" points="182.348,38.967 186.604,53.062 179.164,53.062 	"/>
	<path fill="none" stroke="#FFFFFF" stroke-width="0.9274" d="M173.694,58.695c0,0,7.366,9.684,14.864,0.174"/>
	<g>
		<path fill="#2E64AF" d="M182.978,75.465h1.72v3.467h3.441v-3.467h1.723v8.582h-1.723v-3.764h-3.441v3.764h-1.72V75.465z"/>
		<path fill="#2E64AF" d="M194.378,75.465h1.942l3.368,8.582h-1.907l-0.738-1.967h-3.477l-0.751,1.967h-1.78L194.378,75.465z
			 M195.325,77.186h-0.028l-1.238,3.537h2.51L195.325,77.186z"/>
		<path fill="#2E64AF" d="M200.777,75.465h2.113l3.272,6.416h0.022v-6.416h1.645v8.582h-2.102l-3.283-6.417h-0.023v6.417h-1.645
			V75.465z"/>
		<path fill="#2E64AF" d="M209.801,75.465h2.349c2.63,0,4.954,0.887,4.954,4.291c0,3.406-2.324,4.291-4.954,4.291h-2.349V75.465z
			 M211.522,82.693h0.958c1.436,0,2.829-1.07,2.829-2.938c0-1.869-1.394-2.938-2.829-2.938h-0.958V82.693z"/>
		<path fill="#2E64AF" d="M223.354,77.038c-0.538-0.233-1.145-0.37-1.744-0.37c-0.592,0-1.354,0.259-1.354,1.195
			c0,1.484,3.762,0.855,3.762,3.734c0,1.883-1.484,2.596-3.223,2.596c-0.934,0-1.352-0.123-2.197-0.333l0.16-1.546
			c0.59,0.318,1.264,0.527,1.94,0.527c0.651,0,1.525-0.332,1.525-1.107c0-1.635-3.761-0.957-3.761-3.799
			c0-1.917,1.488-2.618,2.996-2.618c0.74,0,1.426,0.101,2.053,0.309L223.354,77.038z"/>
		<path fill="#2E64AF" d="M225.064,80.262v-1.354h3.233v1.354H225.064z"/>
		<path fill="#2E64AF" d="M233.578,75.317c2.688,0,4.201,1.819,4.201,4.413s-1.488,4.463-4.201,4.463
			c-2.756,0-4.205-1.83-4.205-4.463C229.373,77.099,230.846,75.317,233.578,75.317z M233.578,82.842
			c1.756,0,2.405-1.562,2.405-3.111c0-1.514-0.7-3.062-2.405-3.062c-1.711,0-2.413,1.549-2.413,3.062
			C231.165,81.279,231.815,82.842,233.578,82.842z"/>
		<path fill="#2E64AF" d="M239.332,75.465h2.111l3.273,6.416h0.023v-6.416h1.65v8.582h-2.105l-3.281-6.417h-0.023v6.417h-1.648
			V75.465z"/>
		<path fill="#2E64AF" d="M253.92,77.618c1.179,0,2.15,0.957,2.15,2.138s-0.972,2.148-2.15,2.148c-1.18,0-2.141-0.968-2.141-2.148
			S252.74,77.618,253.92,77.618z"/>
		<path fill="#2E64AF" d="M260.857,75.465h2.754l2.038,6.505h0.026l2.043-6.505h2.752v8.582h-1.646v-7.082h-0.026l-2.312,7.082
			h-1.646l-2.313-7.082l-0.022,0.022v7.06h-1.647V75.465z"/>
		<path fill="#2E64AF" d="M272.38,75.465h1.722v8.582h-1.722V75.465z"/>
		<path fill="#2E64AF" d="M275.924,75.465h2.113l3.272,6.416h0.022v-6.416h1.648v8.582h-2.1l-3.285-6.417h-0.027v6.417h-1.645
			V75.465z"/>
		<path fill="#2E64AF" d="M284.949,75.465h2.35c2.628,0,4.955,0.887,4.955,4.291c0,3.406-2.327,4.291-4.955,4.291h-2.35V75.465z
			 M286.672,82.693h0.96c1.438,0,2.825-1.07,2.825-2.938c0-1.869-1.387-2.938-2.825-2.938h-0.96V82.693z"/>
		<path fill="#2E64AF" d="M298.504,77.038c-0.541-0.233-1.144-0.37-1.744-0.37c-0.594,0-1.357,0.259-1.357,1.195
			c0,1.484,3.762,0.855,3.762,3.734c0,1.883-1.483,2.596-3.215,2.596c-0.941,0-1.357-0.123-2.202-0.333l0.158-1.546
			c0.592,0.318,1.267,0.527,1.942,0.527c0.653,0,1.524-0.332,1.524-1.107c0-1.635-3.761-0.957-3.761-3.799
			c0-1.917,1.486-2.618,2.999-2.618c0.737,0,1.427,0.101,2.05,0.309L298.504,77.038z"/>
		<path fill="#2E64AF" d="M305.441,75.465h1.939l3.371,8.582h-1.906l-0.738-1.967h-3.477l-0.75,1.967h-1.785L305.441,75.465z
			 M306.387,77.186h-0.025l-1.238,3.537h2.503L306.387,77.186z"/>
		<path fill="#2E64AF" d="M313.482,76.818h-2.457v-1.354h6.637v1.354h-2.458v7.229h-1.722V76.818z"/>
		<path fill="#2E64AF" d="M320.863,75.465h2.177c1.869,0,3.576,0.539,3.576,2.594c0,2.001-1.462,2.729-3.306,2.729h-0.725v3.259
			h-1.723V75.465z M322.586,79.437h0.602c0.861,0,1.635-0.286,1.635-1.28s-0.748-1.338-1.635-1.338h-0.602V79.437z"/>
		<path fill="#2E64AF" d="M327.911,75.465h1.722v7.229h3.335v1.354h-5.057V75.465z"/>
		<path fill="#2E64AF" d="M337.023,75.465h1.939l3.371,8.582h-1.904l-0.738-1.967h-3.48l-0.747,1.967h-1.783L337.023,75.465z
			 M337.974,77.186h-0.024l-1.247,3.537h2.509L337.974,77.186z"/>
		<path fill="#2E64AF" d="M345.781,80.649l-3.133-5.185h2.014l2.029,3.603l2.064-3.603h1.817l-3.069,5.185v3.397h-1.723V80.649z"/>
	</g>
	<g>
		<path fill="#2E64AF" d="M1.352,64.551v2.456H0v-6.636h1.352v2.457h7.231v1.723H1.352z"/>
		<path fill="#2E64AF" d="M0,59.003v-1.72h3.467v-3.441H0v-1.719h8.583v1.719H4.822v3.441h3.761v1.72H0z"/>
		<path fill="#2E64AF" d="M0,49.854v-5.067h1.352v3.347h2.116V45.07h1.354v3.063h2.406v-3.372h1.355v5.093H0z"/>
	</g>
	<g>
		<ellipse fill="#2E64AF" cx="172.658" cy="43.42" rx="3.62" ry="3.559"/>
		<path fill="#FFFFFF" d="M172.659,48.389c-2.739,0-4.968-2.229-4.968-4.969c0-2.738,2.229-4.964,4.968-4.964
			c2.738,0,4.965,2.226,4.965,4.964C177.624,46.16,175.396,48.389,172.659,48.389L172.659,48.389z M172.659,41.268
			c-1.188,0-2.154,0.966-2.154,2.152c0,1.188,0.966,2.155,2.154,2.155c1.186,0,2.154-0.967,2.154-2.155
			C174.812,42.233,173.845,41.268,172.659,41.268L172.659,41.268z"/>
	</g>
</g>
</svg>
